<svg xmlns="http://www.w3.org/2000/svg" viewBox=".013 0 3895.387 3311.5">
    <text x="185.882" y="953.674" font-size="67.367" text-anchor="middle">101</text>
    <path
        d="M309 723c-101.2 26.8-190.9 56.8-267.3 87.8-21.6 8.8-20 8.4-39.8 17.1l110.4 305.8v0l11.7-5.1c10.2-3.9 20.4-7.9 30.5-11.8 68.7-29.9 151.2-57.3 245.8-82 0 0-16.8-57-33.7-114v0c-19.2-66-38.4-131.9-57.6-197.8z"
        fill="#ff8ebd" stroke="#000" stroke-width="3" fill-opacity=".3" />
    <text x="798.971" y="819.909" font-size="67.367" text-anchor="middle">103</text>
    <path
        d="M948.2 613.5c-70 7-137.8 15.1-203.1 24.2-40.2 5.6-79.5 11.6-117.8 18 23.4 105.8 46.8 211.7 70.3 317.5 30.2-4.9 61-9.5 92.5-13.9 66.2-9.2 135.1-17.4 206.4-24.3v0c-16.2-107.1-32.3-214.3-48.3-321.5z"
        fill="#ff8ebd" stroke="#000" stroke-width="3" fill-opacity=".3" />
    <text x="848.402" y="1086.652" font-size="67.139" text-anchor="middle">103E</text>
    <path
        d="M998.1 936.7c-71.9 7-140.4 15.1-206.3 24.3-31.3 4.4-61.9 9-91.9 13.8l-2.2.4v0c23.1 106.6 46.3 213.1 46.3 213.1 2.5-.4 4.3-.7 4.7-.8 25.3-4 50.1-7.7 75.4-11.2 65.2-9.1 133-17.1 203.3-23.8v0s-14.6-107.9-29.3-215.8z"
        fill="#e2bffc" stroke="#000" stroke-width="3" fill-opacity=".3" />
    <text x="1408.666" y="770.474" font-size="67.367" text-anchor="middle">105</text>
    <path
        d="M1580.3 583.1c-107.9 0-213.5 2.5-315.9 7.4l27.3 323.8c81.6-3.7 165.2-5.8 250.4-6.3v-75.1 0h41.9V583.1h-3.7z"
        fill="#ff8ebd" stroke="#000" stroke-width="3" fill-opacity=".3" />
    <text x="1402.418" y="1045.596" font-size="67.139" text-anchor="middle">105E</text>
    <path
        d="M1542.4 909.7c-85.4.5-168 2.6-249.7 6.3l16.8 216.9c1.5-.1 3-.1 4.5-.2 77-3.4 148.7-5.4 228.5-5.9v0c-.1 0-.1-108.6-.1-217.1z"
        fill="#e2bffc" stroke="#000" stroke-width="3" fill-opacity=".3" />
    <text x="1999.423" y="1060.57" font-size="67.139" text-anchor="middle">107E</text>
    <path
        d="M1882.8 916.6c-9.2 108.2-18.5 216.4-18.5 216.4 1.7.1 3.4.2 5 .2 97.4 4.5 190.8 11.2 280.4 19.8l25-215.3v0c-94.1-9.3-191.4-16.4-291.9-21.1z"
        fill="#e2bffc" stroke="#000" stroke-width="3" fill-opacity=".3" />
    <text x="3079.019" y="1018.617" font-size="67.367" text-anchor="middle">111</text>
    <path d="M3172.8 825.7L2987 992.2l-90.3 79.4 2.5 23.6 315.8-73-28.3-191.8z" fill="#ff8ebd"
        stroke="#000" stroke-width="3" fill-opacity=".3" />
    <text x="2805.931" y="1545.516" font-size="67.139" text-anchor="middle">113E</text>
    <path
        d="M2925 1387.4c-99.4 5.1-155.1 7.3-210.7 9.5v256.9c109.4.3 218.8.5 218.8.5v-1.4 0c-.1-90.8-2.9-179.9-8.1-265.5z"
        fill="#e2bffc" stroke="#000" stroke-width="3" fill-opacity=".3" />
    <text x="3073.329" y="2350.933" font-size="67.367" text-anchor="middle">116</text>
    <path
        d="M2899.1 2212.5c-1.4 10.3-1.5 18.1-3 28.3l289.6 240.7s28.7-200.9 29.5-206.4v0c0-.1-158-31.4-316.1-62.6z"
        fill="#ff8ebd" stroke="#000" stroke-width="3" fill-opacity=".3" />
    <text x="2929.387" y="2448.349" font-size="67.367" text-anchor="middle">117</text>
    <path
        d="M2896.2 2240.7c-41.7 13.1-76.3 20.5-120.4 32.3l82.2 313.9c51.6-13.8 100-28.3 145.1-43.6 0 0 90.9-30.7 181.9-61.5v0c-96.3-80.3-192.6-160.7-288.8-241.1z"
        fill="#ff8ebd" stroke="#000" stroke-width="3" fill-opacity=".3" />
    <text x="1133.38" y="2304.813" font-size="67.139" text-anchor="middle">123E</text>
    <path
        d="M1019.8 2161.7c-15.7 106.8-31.5 213.5-31.5 213.5 96.4 9.5 198 16.7 303 21.5 0 0 .8-11.1 1.6-22.1v0c8-96.6 16-193.1 16-193.1v0c-97.9-4.4-196.7-11-289.1-19.8z"
        fill="#e2bffc" stroke="#000" stroke-width="3" fill-opacity=".3" />
    <text x="152.441" y="581.943" font-size="67.367" text-anchor="middle">201</text>
    <path
        d="M197.8 336.4c-59.2 15.9-115 32.7-167.1 50.3l115.5 385.5C196 755 250 738.7 307.8 723.3v0c0 .1-92.3-324.7-110-386.9z"
        fill="#ffdcc4" stroke="#000" stroke-width="3" fill-opacity=".3" />
    <text x="3469.419" y="1532.837" font-size="67.367" text-anchor="middle">213</text>
    <path
        d="M3705.1 1341c-227.3 13.4-454.7 26.7-454.7 26.7 5.6 92 8.6 187.2 8.6 284.6v1.1c227.8-.7 455.6-1.3 455.6-1.3v0c0-106.4-3.3-210.5-9.5-311.1z"
        fill="#ffdcc4" stroke="#000" stroke-width="3" fill-opacity=".3" />
    <text x="3417.562" y="2487.122" font-size="67.367" text-anchor="middle">216</text>
    <path
        d="M3221.7 2235.1c-2.6 19-5.2 37.9-8 56.5 0 0-14.2 94.9-28.5 189.9v0l331.3 296.6 120.2-239c14.1-93.9 28.2-187.9 28.2-187.9 3.1-20.3 6-40.9 8.8-61.8v0c-.1.1-226-27.1-452-54.3z"
        fill="#ffdcc4" stroke="#000" stroke-width="3" fill-opacity=".3" />
    <text x="2977.979" y="2785.185" font-size="67.367" text-anchor="middle">217</text>
    <path
        d="M3021.4 2537.3v0l-18.4 5.4c-44.9 15.2-93.2 29.7-144.7 43.5l100.5 385.9c42.5-13.4 82.5-27.6 129.3-43.4 0 0 1.6-.5 3.2-1.1v0l42.8-15 6-2z"
        fill="#ffdcc4" stroke="#000" stroke-width="3" fill-opacity=".3" />
    <text x="2397.362" y="2908.286" font-size="67.367" text-anchor="middle">219</text>
    <path
        d="M2537.7 2655.2c-39.7 6.6-80.4 12.9-122.2 18.7-57.3 8-116.5 15.2-177.4 21.6l-.9.1-17.1 1.8 55.2 398.7c1.2-.1 2.5-.3 3.7-.4l1-.1c65.6-6.9 129.4-14.6 191.3-23.3 52.3-7.3 103.2-15.2 152.5-23.7v0c-.1 0-43.1-196.7-86.1-393.4z"
        fill="#ffdcc4" stroke="#000" stroke-width="3" fill-opacity=".3" />
    <text x="1398.973" y="2960.145" font-size="67.367" text-anchor="middle">222</text>
    <path
        d="M1262.6 2721c-14.9 200.6-29.9 401.3-29.9 401.3 112.8 5.5 229.1 8.4 348.1 8.4h9.8v0l-8.2-402.3h-1.9v0c-108.6.1-214.8-2.5-317.9-7.4z"
        fill="#ffdcc4" stroke="#000" stroke-width="3" fill-opacity=".3" />
    <text x="730.634" y="2908.286" font-size="67.367" text-anchor="middle">224</text>
    <path
        d="M631.7 2656.6l-87.2 393.2c29.9 5.1 60.4 10 91.5 14.7 77.8 11.7 159.1 22.1 243.6 30.9l61.3-398.1c-85.1-8.6-167-18.9-245-30.6v0c-21.7-3.2-43.1-6.6-64.2-10.1z"
        fill="#ffdcc4" stroke="#000" stroke-width="3" fill-opacity=".3" />
    <text x="215.446" y="263.04" font-size="67.367" text-anchor="middle">301</text>
    <path
        d="M274 132.7c-44.8 10.3-88.2 21.2-129.9 32.5l53.6 171.3c39.1-10.5 79.7-20.6 121.8-30.2v0c0-.1-22.7-86.8-45.5-173.6z"
        fill="#f4b1ab" stroke="#000" stroke-width="3" fill-opacity=".3" />
    <text x="1052.445" y="138.484" font-size="67.367" text-anchor="middle">304</text>
    <path
        d="M1232.3 9.8C1114 15.5 999.5 23.9 889.8 34.9l25.8 177.6c105.3-10.4 215.1-18.4 328.5-23.8v0s-5.9-89.4-11.8-178.9z"
        fill="#f4b1ab" stroke="#000" stroke-width="3" fill-opacity=".3" />
    <text x="1736.293" y="122.49" font-size="67.367" text-anchor="middle">306</text>
    <path
        d="M1583.8 1.5l.6 179.3c112.7.1 223.1 2.7 330.2 7.8L1933.9 10v0c-113.5-5.5-230.5-8.4-350.1-8.5z"
        fill="#f4b1ab" stroke="#000" stroke-width="3" fill-opacity=".3" />
    <text x="2413.84" y="172.894" font-size="67.367" text-anchor="middle">308</text>
    <path
        d="M2269.1 34.7l-22 178c10.2 1 20.3 2 30.4 3.1l1 .1c85.3 8.9 167.5 19.4 246.2 31.2 20.3 3.1 40.4 6.2 60.2 9.3l39.4-175.3c-24-3.9-48.3-7.6-73-11.4-81.2-12.2-166.2-23-254.3-32.2l-1-.1v0c-8.9-.9-17.9-1.8-26.9-2.7z"
        fill="#f4b1ab" stroke="#000" stroke-width="3" fill-opacity=".3" />
    <text x="3728.709" y="2442.049" font-size="67.367" text-anchor="middle">316</text>
    <path
        d="M3677 2264.2c-3.8 29.5-7.8 58.6-12.1 87.1 0 0-13.7 91.7-27.5 183.3v0l177.1 28.3c13.9-92.5 27.8-185.1 27.8-185.1 4.4-29.4 8.6-59.2 12.4-89.5v0c-.1.1-88.9-12-177.7-24.1z"
        fill="#f4b1ab" stroke="#000" stroke-width="3" fill-opacity=".3" />
    <text x="2084.76" y="3230.582" font-size="67.367" text-anchor="middle">320</text>
    <path
        d="M2254.8 3098.1c-15.7 1.6-31.6 3.1-47.5 4.6-37.8 3.5-76.3 6.7-115.3 9.6-55.7 4.1-104 7.5-161.7 10.3l11 177.1c59.6-2.9 106.4-4.3 163.9-8.6 40.1-3 79.7-6.3 118.6-9.8 19.2-1.8 38.2-3.6 57.1-5.5v0c0-.1-13-88.9-26.1-177.7z"
        fill="#f4b1ab" stroke="#000" stroke-width="3" fill-opacity=".3" />
    <text x="1398.004" y="3248.03" font-size="67.367" text-anchor="middle">322</text>
    <path
        d="M1247.3 3123c-6.2 89.5-12.5 178.9-12.5 178.9 112.2 5.3 227.9 8.1 346.1 8.1h10.9v0l-3.1-179.3h-7.8v0c-113.9 0-225.4-2.6-333.6-7.7z"
        fill="#f4b1ab" stroke="#000" stroke-width="3" fill-opacity=".3" />
    <text x="196.131" y="3091.971" font-size="47.981" text-anchor="middle">326</text>
    <path
        d="M181 2970.7c-26.2 85.8-52.3 171.6-52.3 171.6 26 7.2 94.6 23.8 113.3 28.1l44.3-172.7c-20.6-4.7-14.4-3.5-34.2-8.4v0c-24.3-6.1-48-12.3-71.1-18.6z"
        fill="#f4b1ab" stroke="#000" stroke-width="3" fill-opacity=".3" />
    <text x="489.761" y="871.767" font-size="67.367" text-anchor="middle">102</text>
    <path
        d="M626.8 655.8c-63.7 10.6-124.6 22.2-182.4 34.8-47 10.2-92 21-134.9 32.4 0 0 39 133.4 78 266.9v0l13.4 44.8c35.8-9.3 73.3-18.2 112.3-26.7 0 0 7.8-1.7 15.7-3.3v0l.8-.2c53.2-11.2 109.1-21.6 167.5-31.1v0c-.1-.1-35.2-158.9-70.4-317.6z"
        fill="#ff8ebd" stroke="#000" stroke-width="3" fill-opacity=".3" />
    <text x="1728.935" y="1045.596" font-size="67.139" text-anchor="middle">106E</text>
    <path
        d="M1624.7 909.6l-.6 198.9v18.3c78.8.5 162.6 2.6 239.7 6.1l18.2-216.4v0c-84.7-4-169.5-6.3-257.3-6.9z"
        fill="#e2bffc" stroke="#000" stroke-width="3" fill-opacity=".3" />
    <text x="3065.091" y="1245.921" font-size="67.367" text-anchor="middle">112</text>
    <path
        d="M3215.1 1022.7c-103 23.8-209.4 48.4-315.8 73v0c6 55.5 11.9 111 11.9 111 1.3 12.2 2.6 24.8 3.8 37.2 4.5 45.9 8.2 93.1 11.2 141l324.1-19.1v0c-7.4-120.5-19.3-235.6-35.2-343.1z"
        fill="#ff8ebd" stroke="#000" stroke-width="3" fill-opacity=".3" />
    <text x="3081.569" y="1826.536" font-size="67.367" text-anchor="middle">114</text>
    <path d="M2934.3 1653.9c0 94.5-3 186.7-8.7 275.6l324 21c6.1-95.7 9.4-194.9 9.4-296.6v0h-324.7z"
        fill="#ff8ebd" stroke="#000" stroke-width="3" fill-opacity=".3" />
    <text x="2646.833" y="2495.846" font-size="67.367" text-anchor="middle">118</text>
    <path
        d="M2774.8 2272.7v0c-4.9 1.3-9.9 2.7-9.9 2.7-37.4 10.1-76.6 19.5-117.5 28.4 0 0-1.7.4-3.4.7v0c-.8.2-1.5.3-1.5.3-4.7 1-9.4 2-14.2 3l-5.6 1.2v0c-.4.1-.9.2-.9.2-48.6 10.1-99.5 19.5-152.5 28.2 23.1 105.9 46.1 211.8 69.2 317.7 62-10.4 121.3-21.8 177.7-34 49.3-10.7 96.5-22.1 141.3-34v0c0-.1-41.3-157.2-82.7-314.4z"
        fill="#ff8ebd" stroke="#000" stroke-width="3" fill-opacity=".3" />
    <text x="2289.105" y="2275.832" font-size="67.139" text-anchor="middle">119E</text>
    <path
        d="M2425.5 2125.1c-25.8 4.2-60 9.8-82.8 13-51.4 7.2-104.5 13.6-160 19.4-10.4 1.1-20.8 2.1-33.4 3.4 0 0 1.1 8.3 2.1 16.6v0c13.5 98.6 27.1 197.2 27.1 197.2 8.6-.8 16.8-1.6 25.8-2.6 57-6 112.4-12.7 166-20.2 28.1-3.9 68.6-10.5 100.4-15.7v0c-.1 0-22.6-105.5-45.2-211.1z"
        fill="#e2bffc" stroke="#000" stroke-width="3" fill-opacity=".3" />
    <text x="1729.418" y="2317.854" font-size="67.139" text-anchor="middle">121E</text>
    <path
        d="M1862.5 2181.2v0c-5.3.2-10.6.5-10.6.5-27.5 1.2-55.2 2.2-83.3 3.1-11.8.4-23.7.7-35.5 1-20 .5-40.1.9-60.3 1.2-9.4.1-18.9.3-28.4.4 0 0-8.1.1-16.2.1v215.8h5.6c6.3-.1 12.5-.1 12.5-.1 9.8-.1 19.6-.2 29.4-.4 20.9-.3 41.7-.7 62.3-1.2 12.3-.3 24.5-.6 36.8-1 28.9-.9 57.5-1.9 85.9-3.2 5.1-.2 10.2-.5 16.6-.7v0c-.1-.2-7.5-107.8-14.8-215.5z"
        fill="#e2bffc" stroke="#000" stroke-width="3" fill-opacity=".3" />
    <text x="1406.243" y="2600.046" font-size="67.367" text-anchor="middle">122</text>
    <path
        d="M1290.6 2397.3l-26.6 323.8c102.6 4.8 208.3 7.4 316.3 7.4l1.4-.6v0l-2.9-237.8H1541v-86.4 0c-85.2-.6-168.9-2.7-250.4-6.4z"
        fill="#ff8ebd" stroke="#000" stroke-width="3" fill-opacity=".3" />
    <text x="1102.365" y="2580.175" font-size="67.367" text-anchor="middle">123</text>
    <path
        d="M988.1 2375.7l-47.2 321.6c103.1 10.4 211 18.4 322.6 23.7l26.6-323.8v0c-104.4-4.7-205.4-11.9-302-21.5z"
        fill="#ff8ebd" stroke="#000" stroke-width="3" fill-opacity=".3" />
    <text x="845.986" y="2276.314" font-size="67.139" text-anchor="middle">124E</text>
    <path
        d="M747.9 2126.2c-23.2 105.7-46.3 211.3-46.3 211.3 15.5 2.7 34.6 6.1 44.3 7.6 76.8 11.6 157.6 21.6 243.2 30l1.8-13.2v0l28.8-200.4v0c-70.9-6.8-221.6-28.1-271.8-35.3z"
        fill="#e2bffc" stroke="#000" stroke-width="3" fill-opacity=".3" />
    <text x="621.26" y="2236.223" font-size="57.479" text-anchor="middle">125E</text>
    <path
        d="M571.9 2093.3c-1.4 5.6-2.8 11.3-4.2 16.9v0c-22.2 97-44.4 193.9-44.4 193.9 55.4 11.8 116.4 23.4 178.3 33.4l46.3-211.3v0c-60.4-9.5-120.5-21.2-176-32.9z"
        fill="#e2bffc" stroke="#000" stroke-width="3" fill-opacity=".3" />
    <text x="399.13" y="519.422" font-size="67.367" text-anchor="middle">202</text>
    <path
        d="M537.6 262.9c-62 10.7-121.6 22.2-178.4 34.5-56.1 12.1-109.7 25.2-160.9 38.9l110 386.9c43.3-11.5 88.7-22.4 136.1-32.7 58.1-12.6 119.3-24.3 183.2-34.9v0s-45-196.3-90-392.7z"
        fill="#ffdcc4" stroke="#000" stroke-width="3" fill-opacity=".3" />
    <text x="2083.791" y="479.197" font-size="67.367" text-anchor="middle">207</text>
    <path
        d="M2099.7 277.7l-5.8 48.2c-44.1-3.3-88.4-6.2-133.6-8.7 0 0-3 41.1-6.1 82.2v0l-1.5-.1c-7.7 96.6-15.3 193.3-15.3 193.3 97.7 5.2 192.5 12.6 283.5 21.8l42.4-322v0c-4.8-.5-9.7-1-9.7-1v0c-50.2-5.1-101.5-9.7-153.9-13.7z"
        fill="#ffdcc4" stroke="#000" stroke-width="3" fill-opacity=".3" />
    <text x="2402.694" y="468.534" font-size="67.367" text-anchor="middle">208</text>
    <path
        d="M2339.4 223.1c-2.7 25.6-5.7 51.1-8.4 76.8-21.7-2.5-43.6-5-65.8-7.4 0 0-.7-.1-1.4-.1v0l-42.4 322c4.8.5 9.7 1 14.5 1.5l.9.1c79 8.2 155.2 17.9 228 28.9 24.9 3.8 49.5 7.7 73.6 11.7l87.7-393.5c-33.2-5.5-67-10.8-101.5-16v0c-47.2-7.2-128.1-17.2-185.2-24z"
        fill="#ffdcc4" stroke="#000" stroke-width="3" fill-opacity=".3" />
    <text x="3450.033" y="1228.473" font-size="67.367" text-anchor="middle">212</text>
    <path
        d="M3674.1 1019c-72.9 8.6-145.9 17.2-218.8 25.8v0c-116.6 13.8-233.2 27.5-233.2 27.5 12.5 93.5 22 192.2 28.3 294.9l454.7-26.7v0c-6.9-111.9-17.4-219.5-31-321.5z"
        fill="#ffdcc4" stroke="#000" stroke-width="3" fill-opacity=".3" />
    <text x="3449.548" y="2143.986" font-size="67.367" text-anchor="middle">215</text>
    <path
        d="M3249.5 1951.8c-6.3 98.4-15.7 193-27.7 282.9l451.9 54.4c13.1-97.9 23.4-201 30.4-308.2v0c0-.1-227.3-14.6-454.6-29.1z"
        fill="#ffdcc4" stroke="#000" stroke-width="3" fill-opacity=".3" />
    <text x="2725.474" y="222.329" font-size="67.367" text-anchor="middle">309</text>
    <path
        d="M2624.8 81.2c-19.7 87.6-39.4 175.3-39.4 175.3 97.1 15.5 188.6 32.2 273.7 50.9l44-173.9v0c-86.7-19.2-179.7-36.4-278.3-52.3z"
        fill="#f4b1ab" stroke="#000" stroke-width="3" fill-opacity=".3" />
    <text x="3783.96" y="1527.505" font-size="67.367" text-anchor="middle">313</text>
    <path
        d="M3884.5 1336.7c-89.5 6.1-178.9 12.2-178.9 12.2 5.9 98.2 9 199.7 9 303.5v1.8l179.3-.8v-1 0c0-108-3.2-213.5-9.4-315.7z"
        fill="#f4b1ab" stroke="#000" stroke-width="3" fill-opacity=".3" />
    <text x="3783.96" y="1839.138" font-size="67.367" text-anchor="middle">314</text>
    <path
        d="M3893.9 1653.9l-179.3.8c0 103.8-3.2 205.1-9.1 303.2l178.7 14.9v0c6.3-103 9.7-209.7 9.7-318.9z"
        fill="#f4b1ab" stroke="#000" stroke-width="3" fill-opacity=".3" />
    <text x="1052.445" y="3231.068" font-size="67.367" text-anchor="middle">323</text>
    <path
        d="M910.3 3098.6c-9.9 89.1-19.9 178.2-19.9 178.2 110.1 11 225.1 19.5 343.9 25.1l12.5-178.9v0c-116.3-5.5-228.8-13.7-336.5-24.4z"
        fill="#f4b1ab" stroke="#000" stroke-width="3" fill-opacity=".3" />
    <text x="391.376" y="3144.798" font-size="67.367" text-anchor="middle">325</text>
    <path
        d="M286.2 2998.4l-43.6 172c85.7 19.9 196.9 44.3 294.6 60.4l33.7-176.2v0c-92.2-15.1-203.6-37.6-284.7-56.2z"
        fill="#f4b1ab" stroke="#000" stroke-width="3" fill-opacity=".3" />
    <text x="623.676" y="1117.082" font-size="57.479" text-anchor="middle">102E</text>
    <path
        d="M698.3 974c-56.9 9.3-116.5 19.7-169.3 30.5l52.6 213.7c51.3-10.4 109.6-20.4 163.5-29.1v0c0 .1-23.4-107.5-46.8-215.1z"
        fill="#e2bffc" stroke="#000" stroke-width="3" fill-opacity=".3" />
    <text x="1138.21" y="1058.638" font-size="67.139" text-anchor="middle">104E</text>
    <path
        d="M1292 916c-101.9 4.6-199.6 11.6-293.3 20.6l29.3 215.8c1.6-.2 3.1-.3 4.7-.4 89.3-8.4 181.4-14.8 276.3-19.1v0c-.1 0-8.5-108.5-17-216.9z"
        fill="#e2bffc" stroke="#000" stroke-width="3" fill-opacity=".3" />
    <text x="1725.631" y="770.958" font-size="67.367" text-anchor="middle">106</text>
    <path
        d="M1584.4 583.1v249h39.4V908c87.7.6 173.6 2.9 257.4 6.9l26.7-323.8v0c-104.9-5.2-213-7.9-323.5-8z"
        fill="#ff8ebd" stroke="#000" stroke-width="3" fill-opacity=".3" />
    <g>
        <text x="2333.388" y="820.394" font-size="67.367" text-anchor="middle">108</text>
        <path
            d="M2219.7 614.2c-14.2 103.8-43.5 318.4-44 321.9 8.9.9 17.7 1.8 26.5 2.7l.9.1c73.9 7.7 145.2 16.8 213.4 27 17.4 2.6 34.7 5.3 51.7 8.1 23.4-105.8 46.9-211.7 70.3-317.5-24.2-4.1-48.7-8-73.6-11.7-72.9-11-149-20.6-228-28.9l-.9-.1v0c-5.6-.5-10.9-1.1-16.3-1.6z"
            fill="#ff8ebd" stroke="#000" stroke-width="3" fill-opacity=".3" />
    </g>
    <g>
        <text x="2645.021" y="874.675" font-size="67.367" text-anchor="middle">109</text>
        <path
            d="M2538.9 656.6c-35.1 158.7-70.3 317.5-70.3 317.5 32.1 5.3 63.5 10.8 94.2 16.6 71.8 13.6 139.2 28.7 201.4 45 0 0 7.2 1.9 14.3 3.8v0c41.5-156.9 83-313.9 83-313.9v0c-96.8-26-205-49.2-322.6-69z"
            fill="#ff8ebd" stroke="#000" stroke-width="3" fill-opacity=".3" />
    </g>
    <g>
        <text x="2801.583" y="1335.887" font-size="67.139" text-anchor="middle">112E</text>
        <path
            d="M2714.3 1241.4s98.7-7.6 197.3-17.9c5.5 53.2 10 107.9 13.4 163.9 0 0-105.4 4.7-210.7 9.5v-155.5z"
            fill="#e2bffc" stroke="#000" stroke-width="3" fill-opacity=".3" />
    </g>
    <g>
        <text x="3081.569" y="1543.983" font-size="67.367" text-anchor="middle">113</text>
        <path
            d="M3250.3 1366.3c-108 6.7-216 13.5-324.1 20.2 5.2 85.7 8 174.8 8 265.7l.6 1.2v0h325.1c-.5-.5-1-.9-1-.9v0c.1-98.1-2.9-193.7-8.6-286.2z"
            fill="#ff8ebd" stroke="#000" stroke-width="3" fill-opacity=".3" />
    </g>
    <g>
        <text x="2805.931" y="1816.486" font-size="67.139" text-anchor="middle">114E</text>
        <path d="M2933 1654.3c-99.2 0-159-.2-218.8-.5v262l210 14.2v0c5.8-88.8 8.8-181.4 8.8-275.7z"
            fill="#e2bffc" stroke="#000" stroke-width="3" fill-opacity=".3" />
    </g>
    <g>
        <text x="3063.636" y="2121.693" font-size="67.367" text-anchor="middle">115</text>
        <path
            d="M2925.6 1929.9c-3.4 53.2-7.8 105.4-13 155.9-.2 1.7-.4 3.4-.5 5.1v0l-.4 3.9-12.8 117.4c114 22.4 227.9 44.7 317.5 62.4 14.8-101.8 26.1-210.2 33.3-323.6v0c-.1-.1-162.1-10.6-324.1-21.1z"
            fill="#ff8ebd" stroke="#000" stroke-width="3" fill-opacity=".3" />
    </g>
    <g>
        <text x="2514.976" y="2236.708" font-size="57.479" text-anchor="middle">118E</text>
        <path
            d="M2585.8 2095.1c-50.7 10.8-100.6 20.3-159.8 30l45.2 211.5c57.5-9.5 112.6-19.9 165.3-31.3 0 0-8.3-34.1-16.5-68.1v0c-11.4-47.4-22.8-94.8-34.2-142.1z"
            fill="#e2bffc" stroke="#000" stroke-width="3" fill-opacity=".3" />
    </g>
    <g>
        <text x="2026.601" y="2579.691" font-size="67.367" text-anchor="middle">120</text>
        <path
            d="M2177.9 2375.2c-12.3 1.2-24.7 2.4-37.1 3.6-33.5 3.1-67.6 5.9-102.1 8.5-52.8 3.9-106.7 7.1-161.5 9.7 8 108 16 216 24 323.9 54.7-2.6 108.6-5.9 161.4-9.8 36.5-2.7 72.5-5.7 108-9 16.8-1.6 33.5-3.2 50.1-4.8v0c-14.3-107.4-28.6-214.7-42.8-322.1z"
            fill="#ff8ebd" stroke="#000" stroke-width="3" fill-opacity=".3" />
    </g>
    <g>
        <text x="1722.723" y="2600.046" font-size="67.367" text-anchor="middle">121</text>
        <path
            d="M1876.6 2397c-5.5.3-10.9.5-16.4.7-28.4 1.2-57.1 2.3-86 3.2-12.3.4-24.5.7-36.8 1-20.7.5-41.5.9-62.4 1.2-9.8.1-19.6.3-29.4.4 0 0-6.3.1-12.5.1v0h-5.6v86.5h-48.3l2.9 238.4h15.4c8 0 16-.1 16-.1 7.4 0 14.8-.1 22.3-.1l12.8-.1c10.4-.1 20.7-.2 31-.4 22-.3 43.8-.7 65.6-1.3 12.9-.3 25.7-.7 38.6-1.1 30.4-.9 60.6-2 90.5-3.3 8.8-.4 17.5-.8 26.2-1.2v0c.1 0-11.9-162-23.9-323.9z"
            fill="#ff8ebd" stroke="#000" stroke-width="3" fill-opacity=".3" />
    </g>
    <g>
        <text x="1401.452" y="2317.854" font-size="67.139" text-anchor="middle">122E</text>
        <path
            d="M1309 2181.6c-8.9 107.6-17.8 215.1-17.8 215.1 81.3 3.8 165.1 5.9 250.5 6.4v-199 0c.2-8.4.5-16.9.5-16.9v0c-78.4-.4-156.7-2.3-233.2-5.6z"
            fill="#e2bffc" stroke="#000" stroke-width="3" fill-opacity=".3" />
    </g>
    <g>
        <text x="797.032" y="2550.127" font-size="67.367" text-anchor="middle">124</text>
        <path
            d="M702.1 2339.1c-35.3 158.7-70.6 317.5-70.6 317.5 21.2 3.5 42.6 6.9 64.3 10.2 77.9 11.7 159.6 22 244.6 30.6 0 0 24-161 48.1-322v0l-.8-.7-.2 1c-84.7-8.3-166.1-18.4-243.4-30.1v0c-14.1-2.1-28.1-4.3-42-6.5z"
            fill="#ff8ebd" stroke="#000" stroke-width="3" fill-opacity=".3" />
    </g>
    <g>
        <text x="649.212" y="470.957" font-size="67.367" text-anchor="middle">203</text>
        <path
            d="M718.8 235.3c-9.8 1.3-19.6 2.7-29.3 4-51.9 7.3-102.4 15.1-151.3 23.5l90 392.7c38-6.3 77.1-12.3 117-17.9 14-2 28.1-3.9 42.4-5.7v0c-.1.1-34.5-198.3-68.8-396.6z"
            fill="#ffdcc4" stroke="#000" stroke-width="3" fill-opacity=".3" />
    </g>
    <g>
        <text x="2731.289" y="519.422" font-size="67.367" text-anchor="middle">209</text>
        <path
            d="M2626.6 263.2c-43.8 196.7-87.7 393.5-87.7 393.5 116.8 19.6 224.4 42.7 320.8 68.5l105.8-392.4v0c-102.3-26.5-215.9-49.2-338.9-69.6z"
            fill="#ffdcc4" stroke="#000" stroke-width="3" fill-opacity=".3" />
    </g>
    <g>
        <text x="2981.372" y="577.581" font-size="67.367" text-anchor="middle">210</text>
        <path
            d="M2966 332.8l-105.8 392.4c28 7.5 55.1 15.3 81.2 23.2 21.6 6.6 42.6 13.3 62.9 20.2 0 0 7.2 2.4 14.4 4.9v0l126.5-397.2-7.2-2.4c-11.7-4-23.7-7.9-35.8-11.8-4.5.2-9 .3-13.3.3-3.5 0-6.9-.1-10.2-.3-7.3-.4-14-1.5-20-3.3v0c-29.8-9-60.7-17.7-92.7-26z"
            fill="#ffdcc4" stroke="#000" stroke-width="3" fill-opacity=".3" />
    </g>
    <g>
        <text x="2727.897" y="2849.644" font-size="67.367" text-anchor="middle">218</text>
        <path
            d="M2857.9 2586.9c-44.9 12-92.2 23.4-141.7 34.1-56.5 12.2-115.9 23.6-178.1 34l86 393.4c61.6-10.6 120.8-22.1 177.2-34.3 63.1-13.7 111.5-27.1 157-41.4v0c.1.1-86.1-331-100.4-385.8z"
            fill="#ffdcc4" stroke="#000" stroke-width="3" fill-opacity=".3" />
    </g>
    <g>
        <text x="1733.87" y="2958.206" font-size="67.367" text-anchor="middle">221</text>
        <path
            d="M1901.9 2720.8c-9.2.4-18.3.9-27.5 1.3-29.9 1.3-60.1 2.4-90.5 3.3-12.8.4-25.7.7-38.6 1.1-21.8.5-43.6.9-65.6 1.3-10.3.2-20.7.3-31 .4l-12.8.1c-7.5.1-14.9.1-22.3.1 0 0-8 0-16 .1v0H1583l8.2 402.3h7.4c8.5 0 16.9-.1 16.9-.1 7.9 0 15.8-.1 23.9-.2l13.3-.1c11-.1 21.9-.2 32.9-.4 23.3-.3 46.4-.8 69.5-1.3 13.7-.3 27.3-.7 41-1.1 32.2-1 64.2-2.1 95.9-3.5 12.6-.6 25.1-1.1 37.6-1.7v0c0-.2-19-276.2-27.7-401.6z"
            fill="#ffdcc4" stroke="#000" stroke-width="3" fill-opacity=".3" />
    </g>
    <g>
        <text x="155.833" y="2791.97" font-size="67.367" text-anchor="middle">226</text>
        <path
            d="M150.2 2540.8C84.8 2731 19.3 2921.2 19.3 2921.2c26.6 9.1 54 18 82.4 26.7 34.7 10.6 70.8 20.8 108.4 30.7l110-387c-35.2-9.1-68.9-18.7-101.2-28.5v0c-23.5-7.3-46.5-14.7-68.7-22.3z"
            fill="#ffdcc4" stroke="#000" stroke-width="3" fill-opacity=".3" />
    </g>
    <g>
        <text x="1393.157" y="122.49" font-size="67.367" text-anchor="middle">305</text>
        <path
            d="M1580.3 1.5c-118.7 0-234.8 2.8-347.6 8.2l11.8 179c108.9-5.1 221.1-7.9 335.7-7.9h3.6v0l-.6-179.3h-2.9z"
            fill="#f4b1ab" stroke="#000" stroke-width="3" fill-opacity=".3" />
    </g>
    <g>
        <text x="3733.43" y="926.048" font-size="67.367" text-anchor="middle">311</text>
        <path
            d="M3814.5 739.7l-176.1 34.7 27.8 187.8c4.2 28.7 8.2 57.8 12 87.4l177.5-25.5c-3.8-29.9-7.8-59.3-12.1-88.2v0c-.1.1-14.6-98-29.1-196.2z"
            fill="#f4b1ab" stroke="#000" stroke-width="3" fill-opacity=".3" />
    </g>
    <g>
        <text x="3764.575" y="2150.286" font-size="67.367" text-anchor="middle">315</text>
        <path
            d="M3705.5 1958.4c-6.4 106-16 208.1-28.5 305.2l177.7 24.2c12.8-100.1 22.8-205.3 29.5-314.5v0c0 .1-89.4-7.4-178.7-14.9z"
            fill="#f4b1ab" stroke="#000" stroke-width="3" fill-opacity=".3" />
    </g>
    <g>
        <text x="1107.211" y="789.376" font-size="67.367" text-anchor="middle">104</text>
        <path
            d="M1263.9 590.5c-108.9 5.1-214.4 12.9-315.2 22.9 15.6 104.3 48.2 321.5 48.2 321.5 94.3-9.1 192.7-16.1 294.3-20.7v0c-.8-8.9-19-224.7-27.3-323.7z"
            fill="#ff8ebd" stroke="#000" stroke-width="3" fill-opacity=".3" />
    </g>
    <g>
        <text x="2028.54" y="790.345" font-size="67.367" text-anchor="middle">107</text>
        <path
            d="M1908.3 591.1c-8.7 105-17.4 210.1-26 315.1v0l-.6 8.7c101.4 4.8 199.6 11.9 293.6 21.2 14.7-107.3 29.3-214.6 44-321.9v0c-99.6-10.1-203.6-17.9-311-23.1z"
            fill="#ff8ebd" stroke="#000" stroke-width="3" fill-opacity=".3" />
    </g>
    <g>
        <text x="2284.885" y="1087.136" font-size="67.139" text-anchor="middle">108E</text>
        <path
            d="M2175.3 937.7v0c-12.5 107.6-25 215.3-25 215.3.8.1 1.5.1 2.3.2 12 1.2 22.9 2.3 33.7 3.4 71.6 7.5 139.8 16.1 205 25.9 6.9 1 20.9 3.2 33.2 5.1l47.7-211.3c-2.2-.4-3.8-.6-4.1-.7-17.8-2.9-34.8-5.6-52.1-8.2-68.1-10.3-139.3-19.3-213.1-27-9.5-1-18.1-1.9-26.8-2.7v0c-.1.1-.4.1-.8 0z"
            fill="#e2bffc" stroke="#000" stroke-width="3" fill-opacity=".3" />
    </g>
    <g>
        <text x="2507.429" y="1118.531" font-size="57.479" text-anchor="middle">109E</text>
        <path
            d="M2472.4 977.2c-23.8 105.7-47.7 211.3-47.7 211.3 56.6 9.1 100.1 19 150.3 29.7l52.9-211.7v0c-49.4-10.6-101.4-20.3-155.5-29.3z"
            fill="#e2bffc" stroke="#000" stroke-width="3" fill-opacity=".3" />
    </g>
    <g>
        <text x="2927.448" y="922.171" font-size="67.367" text-anchor="middle">110</text>
        <path
            d="M2861.9 725.7c-20.5 77.6-51.7 195.7-83 313.9v0l118.2 31.1 89.4-78.6 185.7-166.5c-84-28.4-168-56.9-168-56.9-20.3-6.9-41.3-13.6-62.9-20.2v0c-25.5-7.8-52-15.4-79.4-22.8z"
            fill="#ff8ebd" stroke="#000" stroke-width="3" fill-opacity=".3" />
    </g>
    <g>
        <text x="2801.583" y="2023.698" font-size="67.139" text-anchor="middle">115E</text>
        <path d="M2714.3 2075l197.2 8.3c5.1-49.8 9.5-101.1 12.8-153.4l-210-14.2v0z" fill="#e2bffc"
            stroke="#000" stroke-width="3" fill-opacity=".3" />
    </g>
    <g>
        <text x="2338.108" y="2549.642" font-size="67.367" text-anchor="middle">119</text>
        <path
            d="M2468.9 2337.4c-32 5.2-64.8 10.2-98.3 14.9-53.7 7.5-109.2 14.3-166.2 20.2l-.9.1c-8.3.9-16.7 1.7-25.1 2.6 14.3 107.4 28.5 214.7 42.8 322.1 5.4-.5 10.7-1.1 16.1-1.7l.9-.1c60.9-6.4 120.1-13.6 177.4-21.6 41.9-5.9 82.8-12.1 122.6-18.8v0c-.1 0-34.7-158.9-69.3-317.7z"
            fill="#ff8ebd" stroke="#000" stroke-width="3" fill-opacity=".3" />
    </g>
    <g>
        <text x="1996.525" y="2304.33" font-size="67.139" text-anchor="middle">120E</text>
        <path
            d="M2148.7 2160.9c-8.8.9-17.5 1.7-26.4 2.5-32.3 3-66.1 6.2-99.3 8.6-52.4 3.9-105.9 7.1-161.1 9.6l15.6 214.8c55-2.5 108.6-5.7 161.1-9.6 34.5-2.5 68.4-5.4 101.9-8.4 12.1-1.1 24-2.3 37.3-3.6v0c.1 0-14.5-106.9-29.1-213.9z"
            fill="#e2bffc" stroke="#000" stroke-width="3" fill-opacity=".3" />
    </g>
    <g>
        <text x="497.031" y="2499.723" font-size="67.367" text-anchor="middle">125</text>
        <path
            d="M525.8 2306.4v0c-.5-.1-.9-.2-.9-.2-33.5-7.1-66-14.6-97.2-22.4-6.3-1.6-12.5-3.1-18.6-4.7 0 0-44.2 156.3-88.4 312.5 9.4 2.4 18.9 4.9 28.5 7.3 39.8 9.9 81.7 19.5 125 28.4 50.1 10.4 102.6 20.2 156.8 29.1 35.3-158.7 70.6-317.5 70.6-317.5-58.1-9.4-113.7-19.6-166.6-30.7l-.8-.2v0z"
            fill="#ff8ebd" stroke="#000" stroke-width="3" fill-opacity=".3" />
    </g>
    <g>
        <text x="200.422" y="2421.693" font-size="67.367" text-anchor="middle">126</text>
        <path
            d="M130.4 2183.9c-54.6 153.5-109.3 306.9-109.3 306.9 58.1 25.5 124.3 49.7 198 72.2 32.3 9.8 66 19.3 101.1 28.5 0 0 8.7-31 17.3-61.9v0c35.5-125.3 71.1-250.6 71.1-250.6-33.1-8.5-64.7-17.4-94.9-26.6-60.5-18.4-115-38.2-162.7-59.1v0c-7-3.1-13.9-6.2-20.6-9.4z"
            fill="#ff8ebd" stroke="#000" stroke-width="3" fill-opacity=".3" />
    </g>
    <g>
        <text x="3423.735" y="885.821" font-size="67.367" text-anchor="middle">211</text>
        <path
            d="M3530.5 547.7l-343.7 283c14.1 95.1 28.1 190.2 28.1 190.2 2.5 16.8 4.9 33.8 7.2 50.9l452-53.4c-2.5-19-5.2-37.8-7.9-56.4l-27.8-188v0l-23.8-50z"
            fill="#ffdcc4" stroke="#000" stroke-width="3" fill-opacity=".3" />
    </g>
    <g>
        <text x="3469.419" y="1839.138" font-size="67.367" text-anchor="middle">214</text>
        <path
            d="M3714.6 1652.7c-227.8.6-455.6 1.3-455.6 1.3 0 101.9-3.3 201.4-9.5 297.3l454.5 29v0c6.9-105.6 10.6-215.2 10.6-327.6z"
            fill="#ffdcc4" stroke="#000" stroke-width="3" fill-opacity=".3" />
    </g>
    <g>
        <text x="2064.405" y="2942.698" font-size="67.367" text-anchor="middle">220</text>
        <path
            d="M2219.6 2697.4c-16.3 1.6-32.6 3.2-49.1 4.7-35.4 3.3-71.5 6.3-108 9-52.4 3.9-105.8 7.1-160.1 9.7l27.6 401.4c54.9-2.7 109-6 162.1-10 39-2.9 77.5-6.1 115.3-9.6 22.7-2.1 45.1-4.3 67.4-6.6v0c0 .1-27.6-199.2-55.2-398.6z"
            fill="#ffdcc4" stroke="#000" stroke-width="3" fill-opacity=".3" />
    </g>
    <g>
        <text x="1060.684" y="2943.182" font-size="67.367" text-anchor="middle">223</text>
        <path
            d="M941.3 2697.4c-11.2 73-61.3 398.1-61.3 398.1 112.4 11.7 230.2 20.8 352.2 26.8l29.9-401.3v0c-110.9-5.3-218.2-13.2-320.8-23.6z"
            fill="#ffdcc4" stroke="#000" stroke-width="3" fill-opacity=".3" />
    </g>
    <g>
        <text x="407.854" y="2853.036" font-size="67.367" text-anchor="middle">225</text>
        <path
            d="M320.7 2591.7c-33.2 116.9-66.5 233.9-99.7 350.8v0c-5.1 18.1-10.3 36.2-10.3 36.2 13.6 3.6 27.4 7.1 41.3 10.6 89.7 22.3 187.4 42.7 292 60.5l87.2-393.2c-101.4-16.8-195.8-36.2-282-57.6v0c-9.6-2.5-19.1-4.9-28.5-7.3z"
            fill="#ffdcc4" stroke="#000" stroke-width="3" fill-opacity=".3" />
    </g>
    <g>
        <text x="412.216" y="221.36" font-size="67.367" text-anchor="middle">302</text>
        <path
            d="M542.5 80.3c-77.4 12.7-151.3 26.8-221.3 41.9-15.8 3.4-31.3 6.9-46.7 10.4l45.4 173.5c12.9-3 26-5.9 39.2-8.7 71-15.4 146.2-29.6 225.2-42.3v0c.1 0-20.8-87.4-41.8-174.8z"
            fill="#f4b1ab" stroke="#000" stroke-width="3" fill-opacity=".3" />
    </g>
    <g>
        <text x="715.125" y="172.41" font-size="67.367" text-anchor="middle">303</text>
        <path
            d="M889.3 34.9c-77.4 7.7-152.5 16.7-224.7 26.8-41.4 5.8-82 12-121.6 18.5L584.9 255c34.2-5.5 69-10.8 104.5-15.7 72.5-10.1 147.8-19.1 225.6-26.8v0c.1.1-12.8-88.8-25.7-177.6z"
            fill="#f4b1ab" stroke="#000" stroke-width="3" fill-opacity=".3" />
    </g>
    <g>
        <text x="2073.613" y="139.454" font-size="67.367" text-anchor="middle">307</text>
        <path
            d="M1934.4 10.1c-9.6 89.3-19.3 178.6-19.3 178.6 114.5 5.4 225.3 13.5 331.5 24l22-178v0c-107-10.7-218.8-19-334.2-24.6z"
            fill="#f4b1ab" stroke="#000" stroke-width="3" fill-opacity=".3" />
    </g>
    <g>
        <text x="2919.855" y="257.709" font-size="57.674" text-anchor="middle">310</text>
        <path
            d="M2903.6 133.6c-22 86.9-44 173.9-44 173.9 36.6 8.1 72 16.5 106.2 25.3l46-173.3v0c-34.9-9.1-71-17.7-108.2-25.9z"
            fill="#f4b1ab" stroke="#000" stroke-width="3" fill-opacity=".3" />
    </g>
    <g>
        <text x="3765.543" y="1218.78" font-size="67.367" text-anchor="middle">312</text>
        <path
            d="M3855.7 1024.7c-88.8 12.7-177.5 25.5-177.5 25.5 12 95.1 21.2 194.9 27.4 298.3l178.9-12.2v0c-6.5-108.1-16.3-212.4-28.8-311.6z"
            fill="#f4b1ab" stroke="#000" stroke-width="3" fill-opacity=".3" />
    </g>
    <g>
        <text x="2925.152" y="3101.664" font-size="67.367" text-anchor="middle">317</text>
        <path
            d="M2978.8 2966.3c-36.6 11.9-74 23.1-118.6 34.3l39.6 174.9c49.1-12.1 90-24.3 130.1-37.3v0c0-.1-25.5-86-51.1-171.9z"
            fill="#f4b1ab" stroke="#000" stroke-width="3" fill-opacity=".3" />
    </g>
    <g>
        <text x="2729.351" y="3145.768" font-size="67.367" text-anchor="middle">318</text>
        <path
            d="M2859.4 3000.6c-18.1 4.5-37.4 9-58.3 13.5-66.2 14.3-128.5 26.7-201.7 38.7l29.8 175.7c71.7-12 144.7-25.1 209.9-39.2 21.4-4.6 41.3-9.2 59.9-13.9v0c0 .2-19.8-87.3-39.6-174.8z"
            fill="#f4b1ab" stroke="#000" stroke-width="3" fill-opacity=".3" />
    </g>
    <g>
        <text x="2423.534" y="3195.202" font-size="67.367" text-anchor="middle">319</text>
        <path
            d="M2598.9 3053c-39.2 6.5-86.6 13.2-127.7 18.9-61.8 8.6-125.6 16.4-191.3 23.3l-1 .1c-7.8.8-15.7 1.6-23.6 2.4l26.1 177.6c5.4-.5 10.7-1.1 16.1-1.7l1-.1c67.7-7.1 133.6-15.1 197.4-24 46.9-6.6 88.9-13.6 133.5-21.1v0c.2 0-15.2-87.7-30.5-175.4z"
            fill="#f4b1ab" stroke="#000" stroke-width="3" fill-opacity=".3" />
    </g>
    <g>
        <text x="1745.501" y="3247.061" font-size="67.367" text-anchor="middle">321</text>
        <path
            d="M1929.7 3122.8c-9.8.5-27.9.8-37.7 1.2-31.7 1.4-63.7 2.6-95.9 3.5-13.7.4-27.2.8-41 1.1-23.1.6-46.2 1-69.5 1.3-11 .2-21.9.3-32.9.4l-13.3.1c-8.1.1-16 .1-23.9.2 0 0-8.5 0-16.9.1v0h-9.4l3.1 179.3h6.7c8.7 0 17.4-.1 17.4-.1 8.1 0 16.2-.1 24.5-.2l13.5-.1c11.2-.1 22.4-.2 33.7-.4 23.9-.3 47.6-.8 71.3-1.4 14.1-.3 28-.7 42-1.1 33.1-1 65.9-2.2 98.4-3.6 9.8-.4 31.8-2.1 41.5-2.5v0c.1 0-5.8-88.9-11.6-177.8z"
            fill="#f4b1ab" stroke="#000" stroke-width="3" fill-opacity=".3" />
    </g>
    <g>
        <text x="708.825" y="3196.657" font-size="67.367" text-anchor="middle">324</text>
        <path
            d="M571.3 3054.8c-16.8 88-33.6 176.1-33.6 176.1 22.7 3.7 48.1 7.4 71.4 10.9 89.2 13.4 183 25.1 280.7 34.9l19.9-178.2c-95.3-9.5-186.8-20.9-273.9-34v0c-20.9-3.2-44-6.4-64.5-9.7z"
            fill="#f4b1ab" stroke="#000" stroke-width="3" fill-opacity=".3" />
    </g>
    <g>
        <text x="1926.386" y="1697.708" font-size="98.86" text-anchor="middle">PISTA GENERAL</text>
        <path
            d="M1701.7 1164.2c-219-4.9-424.6-8.7-656.6 16.5v160c12-6.6 26.8-10.6 42.9-10.6 25.2 0 54.4 34.3 71.8 53.3 17.5 19 126.5 122.7 123.8 265.4-2.5 135.6-95.1 235.2-115.3 256-20.2 20.8-40.6 51.3-80.3 51.3-16.1 0-30.9-3.9-42.9-10.6v192.1c256.4 32.2 484.1 24.4 723.2 15.1 206.8-8.1 481.6-29.3 803.9-84.5v-830.4c-348-51-644.9-68.6-870.5-73.6z"
            fill="#ef86df" stroke="#000" stroke-width="3" fill-opacity=".3" />
    </g>
    <g>
        <text x="738.445" y="1421.461" font-size="56.976" text-anchor="middle">GOLDEN OESTE</text>
        <path
            d="M1027.4 1557.8V1420c-1.2-4.4-2.5-8.7-3.7-12.9-4.8-7.1-7.5-15.2-7.5-23.7v0c0-10.5 4.1-20.3 11.2-28.6v-172.1c-84.1 9.6-171.8 23.1-264.9 41.7-162.5 32.5-294.9 71.4-385.8 101 20.1 22.9 88.8 105.6 113 232.5z"
            fill="#f285cd" stroke="#000" stroke-width="3" fill-opacity=".3" />
    </g>
    <g>
        <text x="740.035" y="1934.598" font-size="56.976" text-anchor="middle">GOLDEN ESTE</text>
        <path
            d="M1027.4 1931.4c-7.1-8.3-11.2-18.1-11.2-28.6 0-8.5 2.7-16.5 7.5-23.7 1.3-4.2 2.5-8.5 3.7-12.9v-132.5h-537c-23.4 128.9-93.1 212.9-113.7 236.4 91.2 34.7 224.8 80.4 390.1 118.3 90.9 20.8 177.3 36.1 260.6 47.1z"
            fill="#f285cd" stroke="#000" stroke-width="3" fill-opacity=".3" />
    </g>
    <g>
        <text x="1585.204" y="531.822" font-size="60" text-anchor="middle">PALCO</text>
        <path
            d="M1946.7 398.9v0c-68.7-3.7-138.8-6.3-210.1-7.9l-2.2 48.4c-51.1-1.1-102.3-1.7-154-1.7h-11.3c-12.3 0-24.7.1-24.7.1-5 0-32.1.2-40.6.3-12.7.1-25.3.3-37.9.5-12.7.2-25.4.5-38.1.7l-2.4-48.4-8.2.2c-26.9.6-53.7 1.4-80.2 2.3-39.7 1.4-79 3.1-118.8 5.2h-7.5l17.9 193.1.3.3c113.6-6 231.1-9.1 351.5-9.1 122.2 0 241.5 3.2 356.6 9.4 0 0 7.7-96.6 15.3-193.2-2.9 0-5.6-.2-5.6-.2z"
            fill="#85e2fc" stroke="#000" stroke-width="3" fill-opacity=".3" />
    </g>
    <g>
        <text x="994.407" y="530.137" font-size="60" text-anchor="middle">PRENSA</text>
        <path
            d="M1202.8 318.8c-43.6 2.4-87.2 5.5-129.6 8.6 0 0 1.1 10.9 2.2 21.7 2.9 24.7 5.8 49.5 6.7 57.8-69.4 5.1-136.6 11.3-202.1 18.4l-9.9-59.7c-34.5 3.8-66 7.9-99.5 12.2-8.6 1.1-16.6 2.3-25.2 3.4L788 631.4l13.6-1.8c133.3-17.1 276.3-29.9 426.8-37.9v-.2l.2.2-17.9-193.1c-2.6-26.6-5.3-53.2-7.9-79.8z"
            fill="#85e2fc" stroke="#000" stroke-width="3" fill-opacity=".3" />
    </g>
    <g>
        <path
            d="M1155.9 1433.8c-10.4-15.3-27.9-43-43-43-23.7 0-43 19.2-43 43v0c0 6.9 1.6 13.3 4.5 19.1 9.4 42.1 17.5 93.4 20.1 152.1H442.6c-11.2-130.9-70.7-221.6-94.5-254.7h-327v595.4h327c23.1-32.1 84.6-125.1 94.9-259.3h651.2c-2.8 56.5-10.7 106.1-19.8 146.9-2.9 5.7-4.5 12.2-4.5 19.1 0 23.7 19.2 43 43 43 23.7 0 36-24.6 48.1-41.3 12.1-16.7 67.5-97 69-206.3 1.6-115.1-63.7-198.6-74.1-214z"
            fill="#999" stroke="#000" stroke-width="2" />
        <text x="-1657.928" y="229.956" transform="rotate(-90)" font-family="ArialMT"
            font-weight="400" font-size="70.19" text-anchor="middle">ESCENARIO</text>
    </g>
</svg>